<?xml version="1.0" encoding="utf-8"?>
<!-- Generator: Adobe Illustrator 15.0.0, SVG Export Plug-In  -->
<!DOCTYPE svg PUBLIC "-//W3C//DTD SVG 1.1//EN" "http://www.w3.org/Graphics/SVG/1.1/DTD/svg11.dtd" [
	<!ENTITY ns_flows "http://ns.adobe.com/Flows/1.0/">
]>
<svg version="1.1"
	 xmlns="http://www.w3.org/2000/svg" xmlns:xlink="http://www.w3.org/1999/xlink" xmlns:a="http://ns.adobe.com/AdobeSVGViewerExtensions/3.0/"
	 x="0px" y="0px" width="57px" height="57px" viewBox="0 0 57 57" enable-background="new 0 0 57 57" xml:space="preserve">
<defs>
</defs>
<path fill="#FFFFFF" d="M57,44.213c0,6.511-5.374,11.789-12,11.789H12c-6.627,0-12-5.278-12-11.789V11.789C0,5.278,5.373,0,12,0H45
	c6.627,0,12,5.278,12,11.789V44.213z"/>
<path fill="#5F5F61" d="M6.554,13.457h4.301v16.601H6.554V13.457z"/>
<path fill="#5F5F61" d="M12.729,13.457h4.81l2.775,10.23h0.046v-10.23h4.023v16.601h-4.717l-2.868-10.253h-0.046v10.253h-4.023
	V13.457z"/>
<path fill="#5F5F61" d="M32.847,18.246v-0.395c0-0.496-0.101-0.919-0.301-1.268s-0.509-0.523-0.925-0.523
	c-0.462,0-0.802,0.151-1.018,0.454c-0.216,0.302-0.324,0.639-0.324,1.011c0,0.543,0.173,0.974,0.521,1.291
	c0.347,0.317,0.782,0.593,1.306,0.825s1.087,0.469,1.688,0.709c0.601,0.24,1.164,0.555,1.688,0.941
	c0.524,0.388,0.959,0.896,1.307,1.523c0.347,0.628,0.52,1.445,0.52,2.452c0,1.768-0.501,3.062-1.503,3.883
	c-1.002,0.822-2.451,1.232-4.348,1.232c-0.894,0-1.685-0.081-2.37-0.244c-0.686-0.162-1.264-0.43-1.734-0.802
	c-0.471-0.372-0.829-0.853-1.075-1.441c-0.247-0.589-0.37-1.317-0.37-2.186v-0.581h4.163v0.395c0,0.714,0.131,1.214,0.393,1.5
	c0.262,0.287,0.601,0.43,1.018,0.43c0.447,0,0.79-0.154,1.029-0.465c0.239-0.31,0.358-0.689,0.358-1.139
	c0-0.543-0.166-0.973-0.497-1.291c-0.332-0.317-0.748-0.589-1.249-0.813c-0.501-0.225-1.045-0.453-1.63-0.686
	c-0.586-0.232-1.13-0.535-1.63-0.907c-0.501-0.372-0.917-0.86-1.249-1.465s-0.497-1.395-0.497-2.371
	c0-1.689,0.447-2.977,1.341-3.859c0.894-0.884,2.25-1.325,4.07-1.325c1.881,0,3.241,0.406,4.082,1.22
	c0.84,0.814,1.261,2.112,1.261,3.895H32.847z"/>
<path fill="#5F5F61" d="M41.542,13.457h5.411l4.024,16.601h-4.579l-0.439-2.906h-3.423l-0.439,2.906h-4.579L41.542,13.457z
	 M44.271,16.852h-0.046l-1.18,7.045h2.405L44.271,16.852z"/>
<path fill="#30529D" d="M11.876,33.476v1.522H9.874v7.69H8.026v-7.69H6.023v-1.522H11.876z"/>
<path fill="#30529D" d="M11.439,39.218c0-0.594,0.047-1.118,0.141-1.574s0.248-0.837,0.462-1.143
	c0.214-0.305,0.494-0.537,0.841-0.696s0.772-0.239,1.277-0.239c0.53-0.008,0.971,0.063,1.322,0.213
	c0.351,0.151,0.629,0.381,0.834,0.69c0.205,0.31,0.351,0.695,0.437,1.155c0.085,0.46,0.128,0.991,0.128,1.594
	c0,0.593-0.047,1.118-0.141,1.574s-0.248,0.836-0.462,1.142s-0.494,0.538-0.841,0.697c-0.346,0.158-0.772,0.238-1.277,0.238
	c-0.53,0.009-0.971-0.063-1.322-0.213c-0.351-0.15-0.629-0.381-0.834-0.69c-0.205-0.31-0.351-0.692-0.436-1.148
	C11.482,40.361,11.439,39.828,11.439,39.218z M13.21,39.218c0,0.353,0.008,0.68,0.026,0.98c0.017,0.301,0.058,0.56,0.122,0.774
	c0.064,0.215,0.158,0.383,0.283,0.503c0.124,0.12,0.297,0.181,0.52,0.181c0.359,0,0.607-0.189,0.745-0.567
	c0.137-0.379,0.205-1.003,0.205-1.871c0-0.869-0.068-1.493-0.205-1.871c-0.137-0.379-0.385-0.568-0.745-0.568
	c-0.223,0-0.396,0.061-0.52,0.181c-0.125,0.121-0.218,0.289-0.283,0.504c-0.064,0.215-0.104,0.473-0.122,0.773
	C13.219,38.538,13.21,38.865,13.21,39.218z"/>
<path fill="#30529D" d="M21.373,41.876h-0.025c-0.188,0.344-0.432,0.596-0.731,0.755c-0.3,0.158-0.642,0.238-1.027,0.238
	c-0.565,0-0.999-0.155-1.303-0.465s-0.456-0.813-0.456-1.51v-5.148h1.771v4.787c0,0.361,0.06,0.613,0.18,0.755
	c0.12,0.143,0.313,0.213,0.578,0.213c0.625,0,0.937-0.382,0.937-1.148v-4.606h1.771v6.942h-1.694V41.876z"/>
<path fill="#30529D" d="M24.312,33.476h1.771v9.213h-1.771V33.476z"/>
<path fill="#30529D" d="M27.097,39.218c0-0.594,0.047-1.118,0.141-1.574s0.248-0.837,0.462-1.143
	c0.214-0.305,0.494-0.537,0.841-0.696s0.772-0.239,1.277-0.239c0.53-0.008,0.971,0.063,1.322,0.213
	c0.351,0.151,0.629,0.381,0.834,0.69c0.205,0.31,0.351,0.695,0.437,1.155c0.085,0.46,0.128,0.991,0.128,1.594
	c0,0.593-0.047,1.118-0.141,1.574s-0.248,0.836-0.462,1.142s-0.494,0.538-0.841,0.697c-0.346,0.158-0.772,0.238-1.277,0.238
	c-0.53,0.009-0.971-0.063-1.322-0.213c-0.351-0.15-0.629-0.381-0.834-0.69c-0.205-0.31-0.351-0.692-0.436-1.148
	C27.139,40.361,27.097,39.828,27.097,39.218z M28.868,39.218c0,0.353,0.008,0.68,0.026,0.98c0.017,0.301,0.058,0.56,0.122,0.774
	c0.064,0.215,0.158,0.383,0.283,0.503c0.124,0.12,0.297,0.181,0.52,0.181c0.359,0,0.607-0.189,0.745-0.567
	c0.137-0.379,0.205-1.003,0.205-1.871c0-0.869-0.068-1.493-0.205-1.871c-0.137-0.379-0.385-0.568-0.745-0.568
	c-0.223,0-0.396,0.061-0.52,0.181c-0.125,0.121-0.218,0.289-0.283,0.504c-0.064,0.215-0.104,0.473-0.122,0.773
	C28.876,38.538,28.868,38.865,28.868,39.218z"/>
<path fill="#30529D" d="M37.03,41.876h-0.025c-0.188,0.344-0.432,0.596-0.731,0.755c-0.3,0.158-0.642,0.238-1.027,0.238
	c-0.565,0-0.999-0.155-1.303-0.465s-0.456-0.813-0.456-1.51v-5.148h1.771v4.787c0,0.361,0.06,0.613,0.18,0.755
	c0.12,0.143,0.313,0.213,0.578,0.213c0.625,0,0.937-0.382,0.937-1.148v-4.606h1.771v6.942H37.03V41.876z"/>
<path fill="#30529D" d="M41.201,40.417v0.232c0,0.302,0.079,0.545,0.237,0.729s0.387,0.277,0.687,0.277
	c0.274,0,0.492-0.068,0.655-0.206c0.162-0.138,0.244-0.345,0.244-0.62c0-0.224-0.064-0.394-0.192-0.51s-0.278-0.208-0.449-0.277
	l-1.245-0.451c-0.487-0.172-0.855-0.415-1.104-0.729c-0.249-0.313-0.372-0.716-0.372-1.206c0-0.284,0.047-0.553,0.141-0.807
	c0.094-0.254,0.244-0.476,0.449-0.665c0.205-0.188,0.468-0.339,0.789-0.451c0.321-0.111,0.708-0.168,1.162-0.168
	c0.804,0,1.399,0.173,1.784,0.517c0.385,0.344,0.578,0.83,0.578,1.458v0.284h-1.591c0-0.361-0.058-0.626-0.173-0.794
	c-0.115-0.168-0.319-0.252-0.609-0.252c-0.223,0-0.417,0.063-0.584,0.188c-0.167,0.125-0.25,0.312-0.25,0.562
	c0,0.172,0.053,0.327,0.161,0.464c0.107,0.138,0.31,0.254,0.609,0.349l1.065,0.361c0.556,0.189,0.95,0.437,1.181,0.742
	s0.347,0.721,0.347,1.245c0,0.361-0.064,0.68-0.193,0.955c-0.128,0.275-0.306,0.503-0.532,0.684
	c-0.227,0.181-0.499,0.316-0.815,0.406c-0.317,0.091-0.659,0.136-1.027,0.136c-0.505,0-0.92-0.052-1.245-0.155
	c-0.325-0.103-0.584-0.251-0.776-0.444c-0.192-0.194-0.327-0.426-0.404-0.697c-0.077-0.271-0.115-0.574-0.115-0.909v-0.246H41.201z"
	/>
<path fill="#30529D" d="M47.118,39.488v0.555c0,0.207,0.015,0.406,0.045,0.601c0.03,0.193,0.079,0.365,0.147,0.516
	c0.068,0.15,0.158,0.271,0.27,0.361c0.111,0.091,0.248,0.136,0.411,0.136c0.299,0,0.518-0.107,0.654-0.322
	c0.137-0.215,0.231-0.542,0.283-0.981h1.591c-0.034,0.809-0.249,1.431-0.642,1.865c-0.394,0.435-1.014,0.651-1.861,0.651
	c-0.642,0-1.142-0.112-1.501-0.336s-0.625-0.514-0.795-0.87c-0.171-0.357-0.276-0.757-0.314-1.2s-0.058-0.88-0.058-1.31
	c0-0.465,0.032-0.912,0.097-1.343c0.064-0.43,0.192-0.813,0.385-1.148c0.192-0.335,0.468-0.602,0.828-0.8
	c0.359-0.197,0.838-0.297,1.438-0.297c0.514,0,0.935,0.084,1.264,0.252s0.588,0.404,0.776,0.71c0.188,0.305,0.316,0.675,0.385,1.109
	c0.068,0.435,0.103,0.918,0.103,1.451v0.4H47.118z M48.927,38.431c-0.009-0.267-0.026-0.501-0.051-0.704
	c-0.026-0.201-0.071-0.374-0.135-0.516c-0.064-0.142-0.154-0.249-0.27-0.322c-0.116-0.073-0.263-0.11-0.443-0.11
	s-0.327,0.041-0.443,0.123s-0.208,0.189-0.276,0.322c-0.069,0.134-0.118,0.282-0.147,0.445c-0.03,0.163-0.045,0.327-0.045,0.49
	v0.271H48.927z"/>
</svg>
