<?xml version="1.0" encoding="utf-8"?>
<!-- Generator: Adobe Illustrator 15.0.0, SVG Export Plug-In . SVG Version: 6.00 Build 0)  -->
<!DOCTYPE svg PUBLIC "-//W3C//DTD SVG 1.1//EN" "http://www.w3.org/Graphics/SVG/1.1/DTD/svg11.dtd">
<svg version="1.1" id="Calque_1" xmlns="http://www.w3.org/2000/svg" xmlns:xlink="http://www.w3.org/1999/xlink" x="0px" y="0px"
	 width="57px" height="57px" viewBox="0 0 57 57" enable-background="new 0 0 57 57" xml:space="preserve">
<path fill="#FFFFFF" d="M57.172,44.213c0,6.512-5.375,11.789-12,11.789h-33c-6.627,0-12-5.277-12-11.789V11.789
	C0.171,5.278,5.544,0,12.171,0h33c6.627,0,12,5.278,12,11.789V44.213z"/>
<g>
	<text transform="matrix(0.9946 0 0 1 6.0454 41.1836)" fill="#5F5F61" font-family="'VerbCondRegular-Bold'" font-size="11.0348">Toulouse</text>
	<g>
		<g>
			<polygon fill="#5F5F61" points="48.447,11.893 51.604,11.893 51.604,25.261 			"/>
		</g>
		<g>
			<path fill="#E3281B" d="M10.397,11.901v17.801H5.738V11.901H10.397z"/>
			<path fill="#E3281B" d="M16.885,11.901l3.006,10.972h0.05V11.901h4.358v17.801H19.19l-3.106-10.993h-0.05v10.993h-4.358V11.901
				H16.885z"/>
			<path fill="#E3281B" d="M32.717,16.615c0-0.533-0.109-0.988-0.326-1.36c-0.217-0.374-0.553-0.562-1.002-0.562
				c-0.502,0-0.869,0.163-1.102,0.486c-0.234,0.323-0.35,0.686-0.35,1.084c0,0.585,0.186,1.045,0.563,1.386
				c0.373,0.34,0.848,0.635,1.414,0.884c0.566,0.25,1.178,0.504,1.83,0.761c0.65,0.258,1.26,0.596,1.828,1.011
				c0.568,0.416,1.039,0.96,1.416,1.633c0.375,0.672,0.563,1.55,0.563,2.63c0,1.896-0.541,3.271-1.629,4.129
				c-1.086,0.856-2.654,1.284-4.709,1.284c-0.969,0-1.826-0.081-2.567-0.236c-0.743-0.157-1.371-0.434-1.879-0.825
				c-0.51-0.391-0.897-0.899-1.164-1.534c-0.269-0.63-0.401-1.412-0.401-2.344v-0.623h4.507v0.424c0,0.766,0.145,1.301,0.428,1.609
				s0.65,0.463,1.102,0.463c0.484,0,0.854-0.168,1.115-0.499c0.258-0.332,0.391-0.738,0.391-1.225c0-0.581-0.184-1.042-0.543-1.382
				c-0.357-0.341-0.809-0.632-1.352-0.874c-0.543-0.24-1.131-0.484-1.766-0.736c-0.635-0.248-1.224-0.571-1.767-0.97
				c-0.541-0.4-0.992-0.924-1.352-1.573c-0.36-0.647-0.538-1.496-0.538-2.543c0-1.812,0.484-3.191,1.452-4.139
				c0.97-0.948,2.437-1.422,4.408-1.422c2.039,0,3.512,0.437,4.422,1.309c0.91,0.874,1.365,2.266,1.365,4.178h-4.357V16.615z"/>
			<path fill="#E3281B" d="M47.246,11.901l4.357,17.801h-4.959l-0.477-3.113h-3.709l-0.477,3.113H37.1l4.283-17.801H47.246z
				 M44.289,15.541l-1.277,7.555h2.605l-1.279-7.555H44.289z"/>
		</g>
	</g>
</g>
</svg>
