<?xml version="1.0" encoding="utf-8"?>
<!-- Generator: Adobe Illustrator 15.0.0, SVG Export Plug-In  -->
<!DOCTYPE svg PUBLIC "-//W3C//DTD SVG 1.1//EN" "http://www.w3.org/Graphics/SVG/1.1/DTD/svg11.dtd" [
	<!ENTITY ns_flows "http://ns.adobe.com/Flows/1.0/">
]>
<svg version="1.1"
	 xmlns="http://www.w3.org/2000/svg" xmlns:xlink="http://www.w3.org/1999/xlink" xmlns:a="http://ns.adobe.com/AdobeSVGViewerExtensions/3.0/"
	 x="0px" y="0px" width="128px" height="128px" viewBox="0 0 128 128" enable-background="new 0 0 128 128" xml:space="preserve">
<defs>
</defs>
<circle fill="#FFFFFF" cx="64" cy="64" r="63.5"/>
<rect fill="none" width="128" height="128"/>
<path fill="#5F5F61" d="M53.336,87.448c0,2.685-0.94,4.968-2.82,6.848c-1.88,1.88-4.163,2.82-6.849,2.82
	c-2.685,0-4.968-0.94-6.848-2.82c-1.88-1.879-2.82-4.163-2.82-6.848c0-2.686,0.94-4.968,2.82-6.848c1.88-1.88,4.163-2.82,6.848-2.82
	c2.686,0,4.968,0.94,6.849,2.82C52.396,82.479,53.336,84.762,53.336,87.448z M79.118,93.642c0.067,0.939-0.218,1.746-0.856,2.417
	c-0.604,0.706-1.393,1.058-2.367,1.058h-6.797c-0.84,0-1.561-0.277-2.166-0.831c-0.604-0.554-0.94-1.25-1.007-2.09
	c-0.739-7.688-3.835-14.259-9.291-19.714c-5.456-5.456-12.027-8.552-19.715-9.291c-0.839-0.067-1.536-0.403-2.089-1.007
	c-0.554-0.604-0.831-1.326-0.831-2.166V55.22c0-0.974,0.353-1.762,1.058-2.367c0.57-0.571,1.292-0.855,2.165-0.855h0.252
	c5.371,0.437,10.508,1.787,15.409,4.054c4.901,2.266,9.249,5.313,13.042,9.14c3.827,3.793,6.874,8.141,9.14,13.042
	C77.331,83.134,78.682,88.27,79.118,93.642z M104.9,93.742c0.067,0.907-0.235,1.696-0.906,2.367
	c-0.604,0.671-1.376,1.007-2.316,1.007h-7.201c-0.873,0-1.619-0.294-2.241-0.882c-0.621-0.587-0.949-1.3-0.982-2.14
	c-0.403-7.218-2.099-14.075-5.086-20.571c-2.988-6.496-6.874-12.135-11.658-16.919c-4.784-4.784-10.423-8.669-16.919-11.657
	c-6.497-2.988-13.354-4.7-20.571-5.136c-0.84-0.034-1.553-0.361-2.141-0.982c-0.587-0.621-0.881-1.351-0.881-2.19v-7.201
	c0-0.94,0.335-1.712,1.007-2.316c0.604-0.604,1.342-0.906,2.215-0.906h0.151c8.796,0.436,17.214,2.451,25.254,6.043
	s15.182,8.526,21.426,14.804c6.278,6.245,11.212,13.386,14.805,21.427C102.449,76.529,104.464,84.947,104.9,93.742L104.9,93.742z"/>
</svg>
