<?xml version="1.0" encoding="utf-8"?>
<!-- Generator: Adobe Illustrator 15.0.0, SVG Export Plug-In  -->
<!DOCTYPE svg PUBLIC "-//W3C//DTD SVG 1.1//EN" "http://www.w3.org/Graphics/SVG/1.1/DTD/svg11.dtd" [
	<!ENTITY ns_flows "http://ns.adobe.com/Flows/1.0/">
]>
<svg version="1.1"
	 xmlns="http://www.w3.org/2000/svg" xmlns:xlink="http://www.w3.org/1999/xlink" xmlns:a="http://ns.adobe.com/AdobeSVGViewerExtensions/3.0/"
	 x="0px" y="0px" width="128px" height="128px" viewBox="0 0 128 128" enable-background="new 0 0 128 128" xml:space="preserve">
<defs>
</defs>
<circle fill="#FFFFFF" cx="64" cy="64" r="63.5"/>
<rect fill="none" width="128" height="128"/>
<path fill="#5F5F61" d="M71.638,16.812C45.577,16.812,21.03,37.938,16.811,64c-4.217,26.058,13.493,47.188,39.553,47.188
	c26.06,0,50.605-21.13,54.826-47.188C115.408,37.938,97.697,16.812,71.638,16.812z"/>
<path fill="#FFFFFF" d="M86.501,66.364c-2.285-2.643-5.345-4.218-9.187-4.721v-0.168c1.559-0.333,2.963-0.917,4.219-1.753
	c1.253-0.835,2.338-1.852,3.257-3.049c0.919-1.195,1.629-2.534,2.13-4.01c0.499-1.476,0.75-2.99,0.75-4.552
	c0-2.783-0.528-5.109-1.586-6.974c-1.059-1.866-2.463-3.369-4.22-4.511c-1.752-1.142-3.786-1.948-6.098-2.424
	c-2.309-0.472-4.717-0.71-7.223-0.71H49.912c0,0-3.227-0.187-5.254,1.657c-1.358,1.234-1.466,3.651-1.466,3.651h0.053v50.28
	c-0.058,0.15,0.085,1.998-0.26,3.174c-0.891,3.025-1.936,4.01-1.936,4.01c0.069,0.275,2.192,0.622,2.842,0.591
	c1.185-0.053,2.338-0.359,3.459-0.919c1.115-0.553,2.109-1.323,2.982-2.305c0.143-0.161,0.273-0.327,0.391-0.5h17.821
	c3.229,0,6-0.291,8.311-0.877c2.31-0.584,4.258-1.337,5.845-2.256c1.59-0.919,2.854-1.988,3.801-3.216
	c0.949-1.224,1.672-2.463,2.172-3.717c0.503-1.251,0.835-2.476,1.002-3.677c0.167-1.195,0.252-2.268,0.252-3.215
	C89.929,72.279,88.786,69.008,86.501,66.364z M50.096,42.433c0,0-0.135-1.488,0.645-2.396c1.106-1.291,3.226-0.992,3.226-0.992
	h13.356c8.371,0,12.556,3.485,12.556,10.45c0,1.301-0.26,2.523-0.779,3.669c-0.52,1.144-1.298,2.143-2.34,3.001
	c-1.042,0.859-2.339,1.535-3.901,2.028c-1.557,0.496-3.405,0.739-5.536,0.739H50.096V42.433z M80.295,81.521
	c-0.767,1.46-1.814,2.622-3.143,3.491c-1.331,0.869-2.863,1.471-4.599,1.802c-1.739,0.332-3.579,0.499-5.522,0.499H50.096V65.459
	h16.935c4.65,0,8.217,0.884,10.697,2.648c2.478,1.762,3.72,4.408,3.72,7.935C81.448,78.239,81.062,80.067,80.295,81.521z"/>
</svg>
