<?xml version="1.0" encoding="utf-8"?>
<!-- Generator: Adobe Illustrator 15.0.0, SVG Export Plug-In  -->
<!DOCTYPE svg PUBLIC "-//W3C//DTD SVG 1.1//EN" "http://www.w3.org/Graphics/SVG/1.1/DTD/svg11.dtd" [
	<!ENTITY ns_flows "http://ns.adobe.com/Flows/1.0/">
]>
<svg version="1.1"
	 xmlns="http://www.w3.org/2000/svg" xmlns:xlink="http://www.w3.org/1999/xlink" xmlns:a="http://ns.adobe.com/AdobeSVGViewerExtensions/3.0/"
	 x="0px" y="0px" width="128px" height="128px" viewBox="0 0 128 128" enable-background="new 0 0 128 128" xml:space="preserve">
<defs>
</defs>
<circle fill="#FFFFFF" cx="64" cy="64" r="63.5"/>
<rect fill="none" width="128" height="128"/>
<path fill="#5F5F61" d="M92.092,34.056H35.37c-9.536,0-17.264,7.735-17.264,17.269v24.951c0,9.533,7.728,17.269,17.264,17.269
	h56.722c9.538,0,17.27-7.735,17.27-17.269V51.324C109.361,41.791,101.63,34.056,92.092,34.056z M105.346,84.793
	c-0.34,0.375-0.811,0.602-1.319,0.621h-0.096c-0.476,0-0.925-0.175-1.277-0.498L78.631,63.05L64.93,74.484
	c-0.354,0.297-0.789,0.439-1.223,0.439c-0.435,0-0.869-0.143-1.227-0.439L48.814,63.082L25.863,83.966
	c-0.357,0.323-0.811,0.497-1.289,0.497l-0.086-0.006c-0.511-0.026-0.981-0.239-1.324-0.621c-0.318-0.343-0.493-0.809-0.493-1.28
	v-0.091c0.022-0.505,0.249-0.983,0.621-1.326l22.565-20.527l-20.84-17.385c-0.808-0.68-0.916-1.882-0.243-2.69
	c0.678-0.809,1.879-0.919,2.69-0.246l1.754,1.468l34.488,28.774L98.24,41.707l1.755-1.462c0.814-0.673,2.015-0.569,2.69,0.245
	c0.669,0.809,0.564,2.012-0.246,2.685L81.588,60.579l23.635,21.523c0.378,0.337,0.597,0.809,0.619,1.319l0.003,0.091
	C105.842,83.991,105.667,84.438,105.346,84.793z"/>
</svg>
