<?xml version="1.0" encoding="utf-8"?>
<!-- Generator: Adobe Illustrator 15.0.0, SVG Export Plug-In . SVG Version: 6.00 Build 0)  -->
<!DOCTYPE svg PUBLIC "-//W3C//DTD SVG 1.1//EN" "http://www.w3.org/Graphics/SVG/1.1/DTD/svg11.dtd">
<svg version="1.1" id="Calque_1" xmlns="http://www.w3.org/2000/svg" xmlns:xlink="http://www.w3.org/1999/xlink" x="0px" y="0px"
	 width="336px" height="51px" viewBox="0 0 336 51" enable-background="new 0 0 336 51" xml:space="preserve">
<g>
	<g>
		<g>
			<path fill="#5E5F61" d="M209.945,3.448h0.977v7.922h-0.977V3.448z"/>
			<path fill="#5E5F61" d="M212.215,3.448h1.266l2.619,6.613h0.02V3.448h0.977v7.922h-1.34l-2.543-6.412h-0.021v6.412h-0.977V3.448z
				"/>
			<path fill="#5E5F61" d="M221.775,5.501c0-0.832-0.301-1.41-1.232-1.41c-0.82,0-1.31,0.445-1.31,1.287
				c0,2.231,3.739,0.899,3.739,3.794c0,1.831-1.342,2.353-2.463,2.353c-1.853,0-2.397-0.955-2.397-2.641h0.976
				c0,0.889,0.057,1.842,1.488,1.842c0.777,0,1.377-0.556,1.377-1.398c0-2.241-3.74-0.943-3.74-3.849
				c0-0.733,0.311-2.186,2.318-2.186c1.511,0,2.196,0.753,2.221,2.208H221.775z"/>
			<path fill="#5E5F61" d="M226.41,11.37h-0.978V4.314h-1.985V3.448h4.959v0.866h-1.996V11.37z"/>
			<path fill="#5E5F61" d="M229.239,3.448h0.977v7.922h-0.977V3.448z"/>
			<path fill="#5E5F61" d="M233.998,11.37h-0.977V4.314h-1.986V3.448h4.961v0.866h-1.998V11.37z"/>
			<path fill="#5E5F61" d="M236.783,3.448h0.977v5.569c0,1.166,0.379,1.709,1.344,1.709c1.043,0,1.352-0.599,1.352-1.709V3.448
				h0.977v5.569c0,1.52-0.773,2.508-2.328,2.508c-1.588,0-2.32-0.876-2.32-2.508V3.448z"/>
			<path fill="#5E5F61" d="M245.186,11.37h-0.977V4.314h-1.986V3.448h4.961v0.866h-1.998V11.37z"/>
			<path fill="#5E5F61" d="M250.578,3.448h1.264l2.619,6.613h0.021V3.448h0.977v7.922h-1.342l-2.541-6.412h-0.021v6.412h-0.977
				V3.448z"/>
			<path fill="#5E5F61" d="M258.498,3.448h1.309l2.131,7.922h-1.021l-0.564-2.175h-2.531l-0.586,2.175h-1.021L258.498,3.448z
				 M258.021,8.396h2.129l-1.01-3.828h-0.021L258.021,8.396z"/>
			<path fill="#5E5F61" d="M264.41,11.37h-0.975V4.314h-1.986V3.448h4.959v0.866h-1.998V11.37z"/>
			<path fill="#5E5F61" d="M267.238,3.448h0.977v7.922h-0.977V3.448z"/>
			<path fill="#5E5F61" d="M274.473,7.409c0,1.997-0.367,4.117-2.553,4.117c-2.184,0-2.549-2.12-2.549-4.117
				s0.365-4.116,2.549-4.116C274.105,3.293,274.473,5.412,274.473,7.409z M270.391,7.409c0,1.831,0.178,3.318,1.529,3.318
				c1.355,0,1.531-1.487,1.531-3.318c0-1.831-0.176-3.317-1.531-3.317C270.568,4.092,270.391,5.579,270.391,7.409z"/>
			<path fill="#5E5F61" d="M275.629,3.448h1.266l2.619,6.613h0.021V3.448h0.977v7.922h-1.342l-2.541-6.412h-0.021v6.412h-0.979
				V3.448z"/>
			<path fill="#5E5F61" d="M283.549,3.448h1.309l2.133,7.922h-1.021l-0.564-2.175h-2.529l-0.59,2.175h-1.02L283.549,3.448z
				 M283.074,8.396h2.127l-1.008-3.828h-0.023L283.074,8.396z"/>
			<path fill="#5E5F61" d="M287.736,3.448h0.977v7.057h3.217v0.865h-4.193V3.448z"/>
			<path fill="#5E5F61" d="M210.043,15.779h2.12c2.462,0,2.772,1.775,2.772,3.961c0,1.996-0.498,3.961-2.672,3.961h-2.221V15.779z
				 M211.02,22.9h1.021c1.686,0,1.876-1.73,1.876-3.151c0-1.53-0.101-3.172-1.876-3.172h-1.021V22.9z"/>
			<path fill="#5E5F61" d="M216.079,15.779h4.093v0.865h-3.116v2.485h2.94v0.866h-2.94v2.84h3.25v0.866h-4.227V15.779z"/>
			<path fill="#5E5F61" d="M224.619,17.831c0-0.833-0.299-1.409-1.23-1.409c-0.822,0-1.309,0.443-1.309,1.287
				c0,2.229,3.736,0.897,3.736,3.794c0,1.831-1.342,2.353-2.461,2.353c-1.852,0-2.396-0.956-2.396-2.641h0.976
				c0,0.888,0.056,1.842,1.488,1.842c0.774,0,1.376-0.556,1.376-1.398c0-2.241-3.74-0.943-3.74-3.85
				c0-0.732,0.311-2.185,2.318-2.185c1.509,0,2.196,0.754,2.219,2.208H224.619z"/>
			<path fill="#5E5F61" d="M232.832,17.831c0-0.833-0.299-1.409-1.234-1.409c-0.818,0-1.306,0.443-1.306,1.287
				c0,2.229,3.737,0.897,3.737,3.794c0,1.831-1.343,2.353-2.463,2.353c-1.854,0-2.396-0.956-2.396-2.641h0.977
				c0,0.888,0.056,1.842,1.485,1.842c0.778,0,1.377-0.556,1.377-1.398c0-2.241-3.74-0.943-3.74-3.85
				c0-0.732,0.313-2.185,2.319-2.185c1.51,0,2.198,0.754,2.221,2.208H232.832z"/>
			<path fill="#5E5F61" d="M239.857,20.982c-0.088,1.498-0.68,2.874-2.408,2.874c-2.252,0-2.551-2.12-2.551-4.116
				c0-1.998,0.364-4.116,2.551-4.116c1.619,0,2.297,0.909,2.342,2.463h-1.021c-0.021-0.899-0.311-1.664-1.32-1.664
				c-1.354,0-1.533,1.487-1.533,3.317c0,1.83,0.18,3.317,1.533,3.317c1.186,0,1.354-1.111,1.387-2.075H239.857z"/>
			<path fill="#5E5F61" d="M240.789,15.779h0.979v7.922h-0.979V15.779z"/>
			<path fill="#5E5F61" d="M243.061,15.779h4.096v0.865h-3.117v2.485h2.941v0.866h-2.941v2.84h3.248v0.866h-4.227V15.779z"/>
			<path fill="#5E5F61" d="M248.209,15.779h1.264l2.617,6.611h0.023v-6.611h0.975v7.922h-1.342l-2.539-6.413h-0.023v6.413h-0.975
				V15.779z"/>
			<path fill="#5E5F61" d="M259.205,20.982c-0.09,1.498-0.676,2.874-2.408,2.874c-2.252,0-2.551-2.12-2.551-4.116
				c0-1.998,0.367-4.116,2.551-4.116c1.619,0,2.297,0.909,2.342,2.463h-1.021c-0.021-0.899-0.311-1.664-1.32-1.664
				c-1.352,0-1.529,1.487-1.529,3.317c0,1.83,0.178,3.317,1.529,3.317c1.189,0,1.354-1.111,1.389-2.075H259.205z"/>
			<path fill="#5E5F61" d="M260.146,15.779h4.092v0.865h-3.115v2.485h2.939v0.866h-2.939v2.84h3.25v0.866h-4.227V15.779z"/>
			<path fill="#5E5F61" d="M268.686,17.831c0-0.833-0.299-1.409-1.23-1.409c-0.82,0-1.309,0.443-1.309,1.287
				c0,2.229,3.74,0.897,3.74,3.794c0,1.831-1.344,2.353-2.465,2.353c-1.852,0-2.396-0.956-2.396-2.641H266
				c0,0.888,0.059,1.842,1.488,1.842c0.775,0,1.375-0.556,1.375-1.398c0-2.241-3.736-0.943-3.736-3.85
				c0-0.732,0.309-2.185,2.316-2.185c1.508,0,2.197,0.754,2.221,2.208H268.686z"/>
			<path fill="#5E5F61" d="M211.498,28.107h1.309l2.129,7.923h-1.019l-0.567-2.176h-2.529l-0.588,2.176h-1.021L211.498,28.107z
				 M211.02,33.056h2.131l-1.01-3.826h-0.021L211.02,33.056z"/>
			<path fill="#5E5F61" d="M215.684,28.107h2.02c0.688,0,2.451,0,2.451,2.275c0,1.475-0.943,2.297-2.285,2.297h-1.209v3.351h-0.977
				V28.107z M216.66,31.881h1.164c0.711,0,1.309-0.488,1.309-1.542c0-0.865-0.408-1.433-1.375-1.433h-1.098V31.881z"/>
			<path fill="#5E5F61" d="M221.052,28.107h2.02c0.688,0,2.45,0,2.45,2.275c0,1.475-0.942,2.297-2.285,2.297h-1.207v3.351h-0.978
				V28.107z M222.029,31.881h1.163c0.71,0,1.309-0.488,1.309-1.542c0-0.865-0.409-1.433-1.376-1.433h-1.096V31.881z"/>
			<path fill="#5E5F61" d="M226.42,28.107h0.977v7.057h3.217v0.866h-4.193V28.107z"/>
			<path fill="#5E5F61" d="M231.446,28.107h0.977v7.923h-0.977V28.107z"/>
			<path fill="#5E5F61" d="M237.492,35.786c-0.344,0.255-0.797,0.399-1.363,0.399c-2.188,0-2.553-2.12-2.553-4.117
				c0-1.995,0.365-4.115,2.553-4.115c2.186,0,2.551,2.12,2.551,4.115c0,1.143-0.121,2.33-0.643,3.129l0.797,0.733l-0.541,0.576
				L237.492,35.786z M236.084,34.51l0.543-0.6l0.732,0.667c0.244-0.601,0.299-1.498,0.299-2.509c0-1.83-0.178-3.316-1.529-3.316
				c-1.354,0-1.532,1.486-1.532,3.316c0,1.831,0.179,3.318,1.532,3.318c0.289,0,0.531-0.067,0.719-0.189L236.084,34.51z"/>
			<path fill="#5E5F61" d="M239.766,28.107h0.977v5.571c0,1.164,0.375,1.708,1.342,1.708c1.041,0,1.354-0.6,1.354-1.708v-5.571
				h0.975v5.571c0,1.519-0.775,2.507-2.328,2.507c-1.588,0-2.318-0.877-2.318-2.507V28.107z"/>
			<path fill="#5E5F61" d="M245.668,28.107h4.096v0.867h-3.117v2.483h2.939v0.865h-2.939v2.841h3.25v0.866h-4.229V28.107z
				 M247.955,26.1h1.086l-1.197,1.577h-0.666L247.955,26.1z"/>
			<path fill="#5E5F61" d="M250.814,28.107h4.094v0.867h-3.117v2.483h2.939v0.865h-2.939v2.841h3.25v0.866h-4.227V28.107z"/>
			<path fill="#5E5F61" d="M259.355,30.16c0-0.831-0.301-1.408-1.23-1.408c-0.82,0-1.309,0.443-1.309,1.287
				c0,2.229,3.74,0.898,3.74,3.795c0,1.829-1.344,2.352-2.467,2.352c-1.852,0-2.395-0.954-2.395-2.641h0.979
				c0,0.888,0.053,1.842,1.484,1.842c0.777,0,1.375-0.555,1.375-1.398c0-2.241-3.74-0.942-3.74-3.85c0-0.732,0.313-2.186,2.32-2.186
				c1.51,0,2.199,0.754,2.219,2.207H259.355z"/>
			<path fill="#5E5F61" d="M211.031,41.945h-1.665v-1.507h5.194v1.507h-1.664v6.414h-1.865V41.945z"/>
			<path fill="#5E5F61" d="M218.144,48.517c-2.45,0-2.784-1.6-2.784-4.119c0-2.517,0.334-4.116,2.784-4.116
				c2.64,0,2.785,1.921,2.785,4.116C220.929,46.596,220.783,48.517,218.144,48.517z M218.132,47.271
				c0.756,0,0.867-0.699,0.867-2.874c0-2.172-0.111-2.873-0.867-2.873c-0.732,0-0.841,0.701-0.841,2.873
				C217.291,46.572,217.399,47.271,218.132,47.271z"/>
			<path fill="#5E5F61" d="M227.318,45.74c0,1.555-0.444,2.776-2.607,2.776c-2.164,0-2.607-1.222-2.607-2.776v-5.302h1.863v5.845
				c0,0.623,0.244,0.988,0.744,0.988c0.498,0,0.744-0.365,0.744-0.988v-5.845h1.863V45.74z"/>
			<path fill="#5E5F61" d="M228.668,40.438h1.862v6.41h2.696v1.511h-4.559V40.438z"/>
			<path fill="#5E5F61" d="M236.779,48.517c-2.453,0-2.785-1.6-2.785-4.119c0-2.517,0.332-4.116,2.785-4.116
				c2.641,0,2.783,1.921,2.783,4.116C239.563,46.596,239.42,48.517,236.779,48.517z M236.768,47.271
				c0.756,0,0.865-0.699,0.865-2.874c0-2.172-0.109-2.873-0.865-2.873c-0.732,0-0.844,0.701-0.844,2.873
				C235.924,46.572,236.035,47.271,236.768,47.271z"/>
			<path fill="#5E5F61" d="M245.951,45.74c0,1.555-0.441,2.776-2.607,2.776c-2.162,0-2.605-1.222-2.605-2.776v-5.302h1.863v5.845
				c0,0.623,0.244,0.988,0.742,0.988c0.502,0,0.744-0.365,0.744-0.988v-5.845h1.863V45.74z"/>
			<path fill="#5E5F61" d="M248.82,45.939v0.278c0,0.599,0.164,1.054,0.809,1.054c0.654,0,0.844-0.488,0.844-0.941
				c0-1.71-3.406-0.756-3.406-3.718c0-1.265,0.678-2.331,2.596-2.331c1.863,0,2.531,0.945,2.531,2.163v0.189h-1.799
				c0-0.377-0.043-0.654-0.156-0.831c-0.109-0.189-0.287-0.278-0.564-0.278c-0.467,0-0.744,0.278-0.744,0.855
				c0,1.651,3.406,0.82,3.406,3.616c0,1.798-0.998,2.521-2.707,2.521c-1.354,0-2.607-0.412-2.607-2.065v-0.512H248.82z"/>
			<path fill="#5E5F61" d="M253.475,40.438h4.58v1.507h-2.719v1.589h2.553v1.507h-2.553v1.808h2.84v1.511h-4.701V40.438z"/>
		</g>
	</g>
	<g>
		<g>
			<line fill="#5E5F61" x1="201.489" y1="3.446" x2="201.489" y2="48.364"/>
			<rect x="201.049" y="3.446" fill="#5E5F61" width="0.881" height="44.918"/>
		</g>
	</g>
	<g>
		<rect x="77.392" y="3.468" fill="#E32518" width="11.75" height="44.911"/>
		<polygon fill="#E32518" points="105.509,3.468 113.092,31.145 113.217,31.145 113.217,3.468 124.21,3.468 124.21,48.379 
			111.322,48.379 103.488,20.641 103.362,20.641 103.362,48.379 92.367,48.379 92.367,3.468 		"/>
		<path fill="#E32518" d="M145.443,15.354c0-1.34-0.277-2.484-0.824-3.426c-0.55-0.947-1.392-1.417-2.524-1.417
			c-1.267,0-2.193,0.408-2.781,1.227c-0.592,0.816-0.885,1.727-0.885,2.738c0,1.465,0.474,2.63,1.421,3.489
			c0.949,0.86,2.138,1.603,3.567,2.232c1.435,0.628,2.971,1.268,4.616,1.919c1.642,0.651,3.181,1.499,4.613,2.549
			c1.432,1.048,2.623,2.422,3.57,4.118c0.947,1.7,1.421,3.911,1.421,6.638c0,4.78-1.367,8.252-4.106,10.41
			c-2.739,2.164-6.7,3.239-11.88,3.239c-2.444,0-4.602-0.201-6.478-0.597c-1.873-0.399-3.454-1.092-4.736-2.077
			c-1.287-0.983-2.268-2.274-2.938-3.872c-0.674-1.59-1.009-3.563-1.009-5.909v-1.574h11.371v1.071c0,1.934,0.358,3.281,1.075,4.057
			c0.716,0.777,1.641,1.168,2.779,1.168c1.224,0,2.155-0.423,2.815-1.261c0.65-0.838,0.978-1.861,0.978-3.083
			c0-1.464-0.458-2.632-1.36-3.487c-0.907-0.86-2.044-1.597-3.412-2.206c-1.369-0.604-2.853-1.226-4.452-1.854
			c-1.604-0.63-3.089-1.446-4.459-2.452c-1.37-1.009-2.504-2.328-3.411-3.966c-0.907-1.631-1.358-3.773-1.358-6.414
			c0-4.569,1.222-8.051,3.666-10.443c2.444-2.389,6.15-3.586,11.121-3.586c5.136,0,8.853,1.103,11.152,3.305
			c2.296,2.2,3.445,5.714,3.445,10.536h-10.994V15.354z"/>
		<path fill="#E32518" d="M182.09,3.465l10.992,44.914h-12.505l-1.204-7.862h-9.352l-1.201,7.862H156.5l10.805-44.914H182.09z
			 M174.635,12.651l-3.223,19.057h6.571l-3.228-19.057H174.635z"/>
	</g>
	<polygon fill="#5E5F61" points="185.125,3.446 193.088,3.446 193.088,37.172 	"/>
</g>
</svg>
