<?xml version="1.0" encoding="utf-8"?>
<!-- Generator: Adobe Illustrator 15.0.0, SVG Export Plug-In  -->
<!DOCTYPE svg PUBLIC "-//W3C//DTD SVG 1.1//EN" "http://www.w3.org/Graphics/SVG/1.1/DTD/svg11.dtd" [
	<!ENTITY ns_flows "http://ns.adobe.com/Flows/1.0/">
]>
<svg version="1.1"
	 xmlns="http://www.w3.org/2000/svg" xmlns:xlink="http://www.w3.org/1999/xlink" xmlns:a="http://ns.adobe.com/AdobeSVGViewerExtensions/3.0/"
	 x="0px" y="0px" width="336px" height="51px" viewBox="-5.578 -3.932 336 51" enable-background="new -5.578 -3.932 336 51"
	 xml:space="preserve">
<defs>
</defs>
<path fill="#5F5F61" d="M0,0.823h10.875v41.974H0V0.823z"/>
<path fill="#5F5F61" d="M15.611,0.823h12.162l7.017,25.866h0.117V0.823h10.174v41.974H33.152l-7.25-25.925h-0.117v25.925H15.611
	V0.823z"/>
<path fill="#5F5F61" d="M66.48,12.934v-1c0-1.254-0.254-2.322-0.76-3.204c-0.507-0.882-1.286-1.323-2.339-1.323
	c-1.169,0-2.027,0.382-2.573,1.146c-0.546,0.764-0.818,1.617-0.818,2.557c0,1.373,0.438,2.46,1.315,3.263
	c0.877,0.804,1.978,1.499,3.304,2.087c1.325,0.588,2.748,1.186,4.268,1.793c1.521,0.608,2.943,1.402,4.269,2.381
	c1.325,0.98,2.426,2.263,3.304,3.85c0.877,1.587,1.315,3.655,1.315,6.202c0,4.468-1.267,7.741-3.801,9.818
	c-2.534,2.078-6.198,3.116-10.992,3.116c-2.261,0-4.259-0.206-5.993-0.618c-1.735-0.411-3.197-1.087-4.385-2.028
	c-1.189-0.941-2.096-2.155-2.719-3.645c-0.624-1.489-0.936-3.331-0.936-5.526v-1.47h10.525v1c0,1.803,0.331,3.067,0.994,3.792
	c0.662,0.726,1.52,1.088,2.573,1.088c1.13,0,1.997-0.392,2.602-1.176c0.604-0.784,0.906-1.744,0.906-2.881
	c0-1.371-0.419-2.459-1.257-3.263c-0.839-0.803-1.891-1.489-3.157-2.058c-1.268-0.567-2.642-1.146-4.123-1.734
	c-1.482-0.588-2.856-1.352-4.122-2.293c-1.267-0.94-2.319-2.175-3.157-3.704c-0.839-1.528-1.257-3.527-1.257-5.996
	c0-4.271,1.13-7.525,3.392-9.759C55.117,1.117,58.547,0,63.147,0c4.755,0,8.195,1.029,10.32,3.086
	c2.124,2.058,3.187,5.34,3.187,9.847H66.48z"/>
<path fill="#5F5F61" d="M88.464,0.823h13.682l10.174,41.974h-11.577l-1.111-7.349h-8.653l-1.111,7.349H78.291L88.464,0.823z
	 M95.364,9.406h-0.117l-2.982,17.813h6.081L95.364,9.406z"/>
<path fill="#30529D" d="M155.225,1.811v6.673h-8.774v33.704h-8.099V8.484h-8.774V1.811H155.225z"/>
<path fill="#30529D" d="M153.313,26.976c0-2.602,0.206-4.9,0.619-6.899c0.413-1.998,1.087-3.666,2.025-5.004
	c0.937-1.338,2.166-2.356,3.684-3.054c1.519-0.697,3.384-1.046,5.597-1.046c2.324-0.037,4.255,0.274,5.793,0.933
	c1.537,0.66,2.756,1.668,3.656,3.025c0.899,1.357,1.537,3.045,1.912,5.062c0.374,2.017,0.563,4.345,0.563,6.984
	c0,2.601-0.206,4.901-0.618,6.899c-0.413,1.999-1.089,3.667-2.025,5.005c-0.938,1.338-2.166,2.356-3.684,3.054
	s-3.384,1.046-5.596,1.046c-2.326,0.037-4.256-0.274-5.793-0.933c-1.538-0.659-2.756-1.668-3.656-3.025
	c-0.9-1.357-1.538-3.034-1.913-5.033C153.5,31.99,153.313,29.653,153.313,26.976z M161.075,26.976c0,1.546,0.037,2.979,0.112,4.298
	c0.075,1.32,0.253,2.451,0.534,3.393c0.281,0.942,0.693,1.678,1.238,2.205c0.543,0.529,1.302,0.792,2.278,0.792
	c1.575,0,2.662-0.829,3.262-2.488c0.599-1.659,0.9-4.392,0.9-8.2c0-3.808-0.301-6.541-0.9-8.2c-0.601-1.659-1.688-2.488-3.262-2.488
	c-0.976,0-1.735,0.264-2.278,0.792c-0.544,0.528-0.957,1.264-1.238,2.206c-0.281,0.943-0.459,2.074-0.534,3.393
	C161.111,23.998,161.075,25.431,161.075,26.976z"/>
<path fill="#30529D" d="M196.847,38.625h-0.113c-0.825,1.508-1.894,2.611-3.205,3.308c-1.313,0.697-2.813,1.046-4.5,1.046
	c-2.475,0-4.378-0.678-5.709-2.036c-1.331-1.357-1.997-3.563-1.997-6.616V11.764h7.763v20.98c0,1.583,0.262,2.686,0.787,3.308
	c0.524,0.622,1.368,0.933,2.531,0.933c2.736,0,4.105-1.677,4.105-5.033V11.764h7.762v30.424h-7.424V38.625z"/>
<path fill="#30529D" d="M209.727,1.811h7.763v40.377h-7.763V1.811z"/>
<path fill="#30529D" d="M221.932,26.976c0-2.602,0.205-4.9,0.618-6.899c0.412-1.998,1.087-3.666,2.025-5.004
	c0.937-1.338,2.165-2.356,3.684-3.054c1.519-0.697,3.384-1.046,5.597-1.046c2.324-0.037,4.255,0.274,5.793,0.933
	c1.537,0.66,2.756,1.668,3.656,3.025c0.899,1.357,1.537,3.045,1.912,5.062c0.374,2.017,0.563,4.345,0.563,6.984
	c0,2.601-0.206,4.901-0.618,6.899c-0.413,1.999-1.089,3.667-2.025,5.005c-0.938,1.338-2.165,2.356-3.684,3.054
	s-3.385,1.046-5.597,1.046c-2.325,0.037-4.256-0.274-5.793-0.933c-1.538-0.659-2.757-1.668-3.656-3.025
	c-0.9-1.357-1.538-3.034-1.912-5.033C222.119,31.99,221.932,29.653,221.932,26.976z M229.694,26.976
	c0,1.546,0.037,2.979,0.112,4.298c0.074,1.32,0.253,2.451,0.534,3.393c0.281,0.942,0.693,1.678,1.237,2.205
	c0.543,0.529,1.303,0.792,2.278,0.792c1.575,0,2.662-0.829,3.262-2.488c0.6-1.659,0.9-4.392,0.9-8.2c0-3.808-0.301-6.541-0.9-8.2
	c-0.6-1.659-1.687-2.488-3.262-2.488c-0.976,0-1.735,0.264-2.278,0.792c-0.544,0.528-0.956,1.264-1.237,2.206
	c-0.281,0.943-0.46,2.074-0.534,3.393C229.731,23.998,229.694,25.431,229.694,26.976z"/>
<path fill="#30529D" d="M265.465,38.625h-0.113c-0.825,1.508-1.894,2.611-3.205,3.308c-1.313,0.697-2.813,1.046-4.5,1.046
	c-2.475,0-4.378-0.678-5.709-2.036c-1.331-1.357-1.997-3.563-1.997-6.616V11.764h7.763v20.98c0,1.583,0.262,2.686,0.787,3.308
	c0.524,0.622,1.368,0.933,2.531,0.933c2.736,0,4.105-1.677,4.105-5.033V11.764h7.762v30.424h-7.424V38.625z"/>
<path fill="#30529D" d="M283.746,32.235v1.018c0,1.32,0.346,2.385,1.04,3.195c0.693,0.811,1.696,1.216,3.009,1.216
	c1.2,0,2.156-0.301,2.869-0.905c0.712-0.603,1.068-1.507,1.068-2.714c0-0.98-0.281-1.725-0.844-2.234s-1.219-0.914-1.969-1.216
	l-5.455-1.979c-2.138-0.753-3.75-1.818-4.838-3.195c-1.088-1.376-1.631-3.139-1.631-5.288c0-1.244,0.206-2.422,0.619-3.534
	c0.412-1.112,1.068-2.083,1.968-2.913c0.9-0.829,2.054-1.489,3.46-1.979c1.405-0.49,3.102-0.735,5.09-0.735
	c3.524,0,6.131,0.755,7.818,2.262c1.688,1.508,2.53,3.639,2.53,6.39v1.244h-6.974c0-1.583-0.254-2.743-0.76-3.478
	c-0.506-0.735-1.397-1.103-2.672-1.103c-0.976,0-1.828,0.274-2.559,0.82c-0.731,0.547-1.097,1.367-1.097,2.46
	c0,0.755,0.233,1.433,0.703,2.036c0.468,0.604,1.358,1.113,2.671,1.527l4.669,1.583c2.437,0.83,4.162,1.914,5.175,3.252
	c1.012,1.338,1.519,3.158,1.519,5.457c0,1.583-0.281,2.979-0.844,4.185c-0.563,1.207-1.342,2.206-2.335,2.997
	c-0.993,0.792-2.185,1.386-3.571,1.781c-1.388,0.396-2.888,0.594-4.499,0.594c-2.213,0-4.031-0.226-5.456-0.678
	c-1.426-0.453-2.56-1.103-3.403-1.951s-1.434-1.866-1.771-3.054s-0.506-2.517-0.506-3.987v-1.074H283.746z"/>
<path fill="#30529D" d="M309.673,28.164v2.432c0,0.905,0.064,1.781,0.196,2.629c0.131,0.849,0.347,1.603,0.647,2.262
	c0.299,0.66,0.693,1.188,1.181,1.583c0.487,0.396,1.087,0.594,1.8,0.594c1.313,0,2.269-0.471,2.868-1.414
	c0.6-0.942,1.013-2.375,1.238-4.297h6.974c-0.15,3.544-1.088,6.268-2.812,8.171c-1.726,1.904-4.443,2.855-8.156,2.855
	c-2.812,0-5.006-0.49-6.58-1.47c-1.575-0.98-2.738-2.252-3.487-3.817c-0.751-1.564-1.21-3.317-1.378-5.259
	c-0.169-1.941-0.254-3.854-0.254-5.74c0-2.036,0.141-3.996,0.422-5.881c0.281-1.885,0.844-3.563,1.688-5.033
	c0.844-1.471,2.054-2.639,3.628-3.506c1.575-0.867,3.675-1.301,6.3-1.301c2.25,0,4.096,0.368,5.54,1.103
	c1.443,0.735,2.577,1.772,3.403,3.11c0.824,1.339,1.387,2.96,1.687,4.864c0.3,1.904,0.45,4.024,0.45,6.362v1.753H309.673z
	 M317.604,23.526c-0.038-1.168-0.113-2.196-0.226-3.082c-0.112-0.885-0.31-1.64-0.591-2.262s-0.675-1.093-1.181-1.414
	c-0.506-0.32-1.153-0.48-1.94-0.48s-1.435,0.179-1.94,0.537c-0.507,0.359-0.91,0.83-1.209,1.414
	c-0.301,0.585-0.517,1.235-0.647,1.951c-0.132,0.717-0.196,1.433-0.196,2.149v1.188H317.604z"/>
	<text transform="matrix(1 0 0 1 7.1079 13.5215)" opacity="0" font-family="'MyriadPro-Regular'" font-size="12">a</text>
</svg>
