<?xml version="1.0" encoding="utf-8"?>
<!-- Generator: Adobe Illustrator 15.0.0, SVG Export Plug-In  -->
<!DOCTYPE svg PUBLIC "-//W3C//DTD SVG 1.1//EN" "http://www.w3.org/Graphics/SVG/1.1/DTD/svg11.dtd" [
	<!ENTITY ns_flows "http://ns.adobe.com/Flows/1.0/">
]>
<svg version="1.1"
	 xmlns="http://www.w3.org/2000/svg" xmlns:xlink="http://www.w3.org/1999/xlink" xmlns:a="http://ns.adobe.com/AdobeSVGViewerExtensions/3.0/"
	 x="0px" y="0px" width="93px" height="93px" viewBox="-9.259 -29.973 93 93" enable-background="new -9.259 -29.973 93 93"
	 xml:space="preserve">
<defs>
</defs>
<path fill="#5F5F61" d="M73.241,4.498c0,2.483-2.014,4.496-4.497,4.496H19.916c-2.483,0-4.497-2.013-4.497-4.496l0,0
	C15.419,2.014,17.433,0,19.916,0h48.828C71.228,0,73.241,2.014,73.241,4.498L73.241,4.498z"/>
<circle fill="#30529D" cx="4.497" cy="4.498" r="4.497"/>
<path fill="#5F5F61" d="M73.241,19.917c0,2.483-2.014,4.497-4.497,4.497H19.916c-2.483,0-4.497-2.014-4.497-4.497l0,0
	c0-2.483,2.014-4.497,4.497-4.497h48.828C71.228,15.42,73.241,17.434,73.241,19.917L73.241,19.917z"/>
<circle fill="#30529D" cx="4.497" cy="19.917" r="4.497"/>
<path fill="#5F5F61" d="M73.241,35.336c0,2.484-2.014,4.498-4.497,4.498H19.916c-2.483,0-4.497-2.014-4.497-4.498l0,0
	c0-2.484,2.014-4.497,4.497-4.497h48.828C71.228,30.839,73.241,32.852,73.241,35.336L73.241,35.336z"/>
<circle fill="#30529D" cx="4.497" cy="35.336" r="4.497"/>
<text transform="matrix(1 0 0 1 7.1079 13.5215)" opacity="0" font-family="'MyriadPro-Regular'" font-size="12">a</text>
</svg>
