<?xml version="1.0" encoding="utf-8"?>
<!-- Generator: Adobe Illustrator 15.0.0, SVG Export Plug-In  -->
<!DOCTYPE svg PUBLIC "-//W3C//DTD SVG 1.1//EN" "http://www.w3.org/Graphics/SVG/1.1/DTD/svg11.dtd" [
	<!ENTITY ns_flows "http://ns.adobe.com/Flows/1.0/">
]>
<svg version="1.1"
	 xmlns="http://www.w3.org/2000/svg" xmlns:xlink="http://www.w3.org/1999/xlink" xmlns:a="http://ns.adobe.com/AdobeSVGViewerExtensions/3.0/"
	 x="0px" y="0px" width="128px" height="128px" viewBox="0 0 128 128" enable-background="new 0 0 128 128" xml:space="preserve">
<defs>
</defs>
<circle fill="#5F5F61" cx="64" cy="64" r="63.5"/>
<rect fill="none" width="128" height="128"/>
<path fill="#FFFFFF" d="M33.006,69.167v35.239c0.026,1.343,0.886,2.182,1.584,2.581c0.739,0.428,1.538,0.607,2.392,0.614h15.967
	c0.552,0,1.094-0.221,1.479-0.614c0.393-0.388,0.617-0.923,0.617-1.474V88.562h15.9v16.952c0,0.551,0.229,1.086,0.621,1.474
	c0.383,0.393,0.924,0.614,1.474,0.614h15.972c0.857-0.006,1.653-0.186,2.391-0.614c0.703-0.399,1.561-1.243,1.584-2.581V69.167
	L62.997,41.736L33.006,69.167z"/>
<path fill="#FFFFFF" d="M104.651,59.453L90.688,46.68V26.785c0-1.209-0.983-2.189-2.187-2.189h-5.283
	c-1.206,0-2.188,0.98-2.188,2.189V37.85L66.788,24.817c-2.152-1.963-5.437-1.963-7.587,0L21.344,59.453
	c-2.293,2.099-2.45,5.655-0.352,7.942l0,0c1.11,1.215,2.623,1.828,4.147,1.828c1.355,0,2.712-0.488,3.795-1.474l34.063-31.161
	L97.06,67.75c2.293,2.099,5.848,1.935,7.942-0.354C107.1,65.107,106.942,61.551,104.651,59.453z"/>
</svg>
