<?xml version="1.0" encoding="utf-8"?>
<!-- Generator: Adobe Illustrator 15.0.0, SVG Export Plug-In  -->
<!DOCTYPE svg PUBLIC "-//W3C//DTD SVG 1.1//EN" "http://www.w3.org/Graphics/SVG/1.1/DTD/svg11.dtd" [
	<!ENTITY ns_flows "http://ns.adobe.com/Flows/1.0/">
]>
<svg version="1.1"
	 xmlns="http://www.w3.org/2000/svg" xmlns:xlink="http://www.w3.org/1999/xlink" xmlns:a="http://ns.adobe.com/AdobeSVGViewerExtensions/3.0/"
	 x="0px" y="0px" width="128px" height="128px" viewBox="16 16 96 96" enable-background="new 16 16 96 96"
	 xml:space="preserve">
<defs>
</defs>
<rect fill="none" width="64" height="64"/>
<path fill="#FFFFFF" d="M43.872,34.451c-1.917-3.325-1.561-5.277-0.375-5.958c1.186-0.686,3.054-0.018,4.971,3.306
	c0.601,1.039,2.081,3.468,3.842,6.342c-1.716,0.781-3.339,1.726-4.856,2.817C45.844,37.992,44.475,35.492,43.872,34.451z
	 M31.798,48.473c1.037,0.597,3.468,2.077,6.344,3.843c0.776-1.721,1.725-3.344,2.819-4.858c-2.973-1.611-5.474-2.98-6.513-3.58
	c-3.323-1.917-5.274-1.563-5.958-0.376C27.805,44.685,28.473,46.554,31.798,48.473z M35.739,66.806
	c-0.09-0.922-0.142-1.856-0.142-2.801c0-0.952,0.051-1.886,0.142-2.814c-3.359,0.093-6.194,0.162-7.392,0.162
	c-3.84,0-5.353,1.279-5.348,2.647c0,1.367,1.507,2.655,5.348,2.655C29.545,66.655,32.38,66.72,35.739,66.806z M80.546,40.963
	c1.613-2.968,2.979-5.471,3.578-6.512c1.916-3.325,1.565-5.272,0.376-5.958c-1.188-0.683-3.051-0.018-4.974,3.306
	c-0.595,1.039-2.072,3.468-3.838,6.342C77.405,38.927,79.027,39.872,80.546,40.963z M64,35.598c0.95,0,1.883,0.05,2.806,0.138
	c-0.091-3.355-0.156-6.19-0.156-7.388c0-3.838-1.279-5.349-2.649-5.349c-1.367,0-2.656,1.511-2.656,5.349
	c0,1.198-0.061,4.033-0.153,7.388C62.117,35.649,63.055,35.598,64,35.598z M89.853,52.315c2.877-1.761,5.309-3.246,6.35-3.843
	c3.324-1.918,3.995-3.785,3.303-4.972c-0.686-1.181-2.633-1.541-5.958,0.376c-1.041,0.598-3.542,1.972-6.509,3.584
	C88.131,48.976,89.073,50.6,89.853,52.315z M96.203,79.533c-1.042-0.599-3.475-2.083-6.35-3.844
	c-0.78,1.718-1.726,3.341-2.814,4.858c2.963,1.612,5.469,2.98,6.509,3.58c3.326,1.921,5.272,1.566,5.958,0.375
	C100.189,83.319,99.527,81.452,96.203,79.533z M80.542,87.038c-1.515,1.094-3.145,2.039-4.861,2.819
	c1.767,2.876,3.25,5.31,3.845,6.351c1.923,3.325,3.784,3.994,4.973,3.302c1.184-0.687,1.539-2.63-0.376-5.956
	C83.525,92.515,82.154,90.007,80.542,87.038z M99.653,61.353c-1.198,0-4.035-0.069-7.399-0.155c0.094,0.922,0.144,1.855,0.144,2.808
	c0,0.944-0.05,1.879-0.144,2.808c3.365-0.093,6.201-0.155,7.399-0.155c3.839,0,5.348-1.28,5.348-2.655
	C105,62.635,103.491,61.353,99.653,61.353z M47.454,87.038c-1.609,2.969-2.979,5.477-3.582,6.516
	c-1.917,3.326-1.562,5.274-0.375,5.956c1.186,0.682,3.054,0.021,4.971-3.302c0.601-1.042,2.081-3.475,3.842-6.351
	C50.594,89.077,48.971,88.132,47.454,87.038z M38.143,75.688c-2.876,1.765-5.308,3.244-6.344,3.845
	c-3.326,1.919-3.994,3.784-3.308,4.968c0.684,1.183,2.634,1.546,5.958-0.375c1.041-0.6,3.541-1.968,6.513-3.579
	C39.869,79.029,38.919,77.406,38.143,75.688z M64,92.401c-0.954,0-1.888-0.051-2.809-0.145c0.092,3.361,0.153,6.202,0.153,7.398
	c0,3.842,1.285,5.353,2.656,5.346c1.361,0,2.649-1.504,2.649-5.346c0-1.196,0.066-4.034,0.155-7.398
	C65.879,92.35,64.945,92.401,64,92.401z M64,42.714c-11.754,0-21.288,9.53-21.288,21.287c0,11.76,9.533,21.281,21.288,21.281
	c11.752,0,21.28-9.521,21.28-21.281C85.28,52.244,75.752,42.714,64,42.714z"/>
</svg>
