<?xml version="1.0" encoding="utf-8"?>
<!-- Generator: Adobe Illustrator 15.0.0, SVG Export Plug-In  -->
<!DOCTYPE svg PUBLIC "-//W3C//DTD SVG 1.1//EN" "http://www.w3.org/Graphics/SVG/1.1/DTD/svg11.dtd" [
	<!ENTITY ns_flows "http://ns.adobe.com/Flows/1.0/">
]>
<svg version="1.1"
	 xmlns="http://www.w3.org/2000/svg" xmlns:xlink="http://www.w3.org/1999/xlink" xmlns:a="http://ns.adobe.com/AdobeSVGViewerExtensions/3.0/"
	 x="0px" y="0px" width="128px" height="128px" viewBox="16 16 96 96" enable-background="new 16 16 96 96" xml:space="preserve">
<defs>
</defs>

<rect fill="none" width="128" height="128"/>
<path fill="#FFFFFF" d="M64,17.045c-17.566,0-31.808,14.242-31.808,31.809c0,0.377,0.011,0.76,0.028,1.146
	c0.118,3.342,0.748,6.551,1.82,9.553C40.826,81.857,64,110.955,64,110.955s23.17-29.096,29.958-51.4
	c1.073-3.002,1.702-6.215,1.82-9.557c0.02-0.387,0.029-0.768,0.029-1.146C95.81,31.287,81.567,17.045,64,17.045z M64,64.432
	c-8.604,0-15.578-6.975-15.578-15.578c0-8.602,6.975-15.578,15.578-15.578c8.604,0,15.579,6.977,15.579,15.578
	C79.579,57.457,72.604,64.432,64,64.432z"/>
</svg>
