<?xml version="1.0" encoding="utf-8"?>
<!-- Generator: Adobe Illustrator 15.0.0, SVG Export Plug-In  -->
<!DOCTYPE svg PUBLIC "-//W3C//DTD SVG 1.1//EN" "http://www.w3.org/Graphics/SVG/1.1/DTD/svg11.dtd" [
	<!ENTITY ns_flows "http://ns.adobe.com/Flows/1.0/">
]>
<svg version="1.1"
	 xmlns="http://www.w3.org/2000/svg" xmlns:xlink="http://www.w3.org/1999/xlink" xmlns:a="http://ns.adobe.com/AdobeSVGViewerExtensions/3.0/"
	 x="0px" y="0px" width="128px" height="128px" viewBox="16 16 96 96" enable-background="new 16 16 96 96" xml:space="preserve">
<defs>
</defs>

<polyline fill="none" points="128,0 128,128 0,128 "/>
<path fill="#FFFFFF" d="M21.135,45.607h8.464v32.667h-8.464V45.607z"/>
<path fill="#FFFFFF" d="M33.285,45.607h9.465l5.46,20.131h0.091V45.607h7.918v32.667h-9.283l-5.642-20.176h-0.091v20.176h-7.917
	V45.607z"/>
<path fill="#FFFFFF" d="M72.873,55.032v-0.778c0-0.976-0.198-1.807-0.591-2.493c-0.395-0.687-1.001-1.029-1.82-1.029
	c-0.91,0-1.578,0.297-2.002,0.892s-0.637,1.258-0.637,1.99c0,1.068,0.341,1.914,1.024,2.539c0.683,0.625,1.539,1.167,2.571,1.624
	c1.031,0.458,2.139,0.923,3.322,1.396c1.183,0.473,2.29,1.091,3.322,1.853c1.031,0.763,1.889,1.761,2.571,2.997
	s1.023,2.844,1.023,4.827c0,3.477-0.986,6.024-2.958,7.641c-1.972,1.617-4.824,2.425-8.555,2.425c-1.76,0-3.315-0.16-4.665-0.48
	c-1.35-0.32-2.488-0.846-3.413-1.579c-0.926-0.732-1.631-1.677-2.116-2.836c-0.485-1.159-0.728-2.592-0.728-4.301v-1.144h8.191
	v0.778c0,1.403,0.257,2.387,0.773,2.951c0.516,0.565,1.183,0.847,2.002,0.847c0.879,0,1.554-0.305,2.025-0.915
	c0.47-0.61,0.705-1.357,0.705-2.242c0-1.067-0.326-1.914-0.978-2.54c-0.653-0.625-1.472-1.159-2.458-1.601
	c-0.986-0.442-2.055-0.892-3.208-1.35c-1.153-0.458-2.223-1.052-3.208-1.784c-0.986-0.732-1.805-1.693-2.457-2.882
	c-0.653-1.19-0.979-2.745-0.979-4.667c0-3.324,0.879-5.856,2.639-7.595c1.759-1.738,4.429-2.607,8.009-2.607
	c3.701,0,6.378,0.8,8.032,2.402c1.653,1.601,2.48,4.156,2.48,7.663H72.873z"/>
<path fill="#FFFFFF" d="M89.982,45.607h10.648l7.917,32.667h-9.01l-0.864-5.719h-6.734l-0.865,5.719h-9.01L89.982,45.607z
	 M95.352,52.287h-0.091L92.94,66.15h4.732L95.352,52.287z"/>
</svg>
