<?xml version="1.0" encoding="utf-8"?>
<!-- Generator: Adobe Illustrator 15.0.0, SVG Export Plug-In . SVG Version: 6.00 Build 0)  -->
<!DOCTYPE svg PUBLIC "-//W3C//DTD SVG 1.1//EN" "http://www.w3.org/Graphics/SVG/1.1/DTD/svg11.dtd">
<svg version="1.1" id="Calque_1" xmlns="http://www.w3.org/2000/svg" xmlns:xlink="http://www.w3.org/1999/xlink" x="0px" y="0px"
	 width="128px" height="128px" viewBox="0 0 128 128" enable-background="new 0 0 128 128" xml:space="preserve">
<circle fill="#E32518" cx="64" cy="64" r="63.5"/>
<polyline fill="none" points="128,0 128,128 0,128 "/>
<g>
	<g>
		<rect x="13.83" y="44.608" fill="#FFFFFF" width="10.191" height="38.95"/>
		<polygon fill="#FFFFFF" points="38.214,44.608 44.79,68.61 44.9,68.61 44.9,44.608 54.434,44.608 54.434,83.559 43.257,83.559 
			36.462,59.503 36.353,59.503 36.353,83.559 26.817,83.559 26.817,44.608 		"/>
		<path fill="#FFFFFF" d="M72.851,54.917c0-1.163-0.242-2.154-0.716-2.971c-0.476-0.821-1.207-1.229-2.19-1.229
			c-1.098,0-1.901,0.354-2.41,1.064c-0.515,0.708-0.769,1.498-0.769,2.374c0,1.271,0.411,2.282,1.232,3.026
			c0.823,0.746,1.854,1.391,3.095,1.936c1.243,0.545,2.576,1.1,4.002,1.665c1.424,0.565,2.759,1.3,4.001,2.211
			c1.241,0.909,2.273,2.1,3.095,3.571c0.823,1.473,1.234,3.392,1.234,5.756c0,4.146-1.188,7.157-3.562,9.028
			c-2.376,1.878-5.811,2.81-10.304,2.81c-2.118,0-3.991-0.173-5.619-0.517c-1.622-0.347-2.996-0.946-4.108-1.802
			c-1.115-0.853-1.965-1.972-2.546-3.357c-0.585-1.381-0.876-3.091-0.876-5.126V71.99h9.861v0.931c0,1.675,0.312,2.846,0.931,3.519
			c0.624,0.675,1.425,1.012,2.412,1.012c1.062,0,1.869-0.366,2.439-1.092c0.565-0.728,0.851-1.616,0.851-2.676
			c0-1.269-0.396-2.281-1.182-3.024c-0.786-0.746-1.771-1.384-2.956-1.912c-1.188-0.524-2.477-1.063-3.863-1.608
			c-1.392-0.546-2.68-1.254-3.866-2.127c-1.188-0.875-2.173-2.019-2.959-3.44C57.291,60.158,56.9,58.3,56.9,56.01
			c0-3.963,1.06-6.983,3.18-9.057c2.118-2.072,5.333-3.111,9.645-3.111c4.455,0,7.679,0.956,9.671,2.866
			c1.991,1.909,2.988,4.956,2.988,9.139h-9.533V54.917z"/>
		<path fill="#FFFFFF" d="M104.632,44.607l9.534,38.952h-10.847l-1.044-6.817h-8.11l-1.042,6.817H82.438l9.372-38.952H104.632z
			 M98.166,52.573L95.371,69.1h5.7l-2.8-16.526H98.166z"/>
	</g>
	<polygon fill="#FFFFFF" points="107.265,44.59 114.17,44.59 114.17,73.839 	"/>
</g>
</svg>
