<?xml version="1.0" encoding="utf-8"?>
<!-- Generator: Adobe Illustrator 15.0.0, SVG Export Plug-In  -->
<!DOCTYPE svg PUBLIC "-//W3C//DTD SVG 1.1//EN" "http://www.w3.org/Graphics/SVG/1.1/DTD/svg11.dtd" [
	<!ENTITY ns_flows "http://ns.adobe.com/Flows/1.0/">
]>
<svg version="1.1"
	 xmlns="http://www.w3.org/2000/svg" xmlns:xlink="http://www.w3.org/1999/xlink" xmlns:a="http://ns.adobe.com/AdobeSVGViewerExtensions/3.0/"
	 x="0px" y="0px" width="128px" height="128px" viewBox="0 0 128 128" enable-background="new 0 0 128 128" xml:space="preserve">
<defs>
</defs>
<circle fill="#5F5F61" cx="64" cy="64" r="63.5"/>
<rect fill="none" width="128" height="128"/>
<path fill="#FFFFFF" d="M61.279,28.629v27.208c0,1.729-0.503,3.302-1.509,4.719c-1.007,1.417-2.317,2.409-3.933,2.976v33.118
	c0,1.474-0.539,2.749-1.615,3.826c-1.077,1.077-2.353,1.616-3.826,1.616h-5.442c-1.474,0-2.749-0.539-3.826-1.616
	s-1.615-2.353-1.615-3.826V63.531c-1.615-0.566-2.927-1.559-3.933-2.976s-1.509-2.99-1.509-4.719V28.629
	c0-0.737,0.27-1.375,0.808-1.913c0.538-0.539,1.176-0.808,1.913-0.808s1.375,0.27,1.913,0.808c0.538,0.538,0.808,1.176,0.808,1.913
	v17.685c0,0.737,0.27,1.375,0.808,1.913s1.176,0.808,1.913,0.808c0.737,0,1.375-0.27,1.913-0.808s0.808-1.176,0.808-1.913V28.629
	c0-0.737,0.27-1.375,0.808-1.913c0.539-0.539,1.177-0.808,1.913-0.808c0.737,0,1.375,0.27,1.913,0.808
	c0.539,0.538,0.808,1.176,0.808,1.913v17.685c0,0.737,0.27,1.375,0.808,1.913c0.539,0.539,1.177,0.808,1.913,0.808
	c0.737,0,1.375-0.27,1.914-0.808c0.538-0.539,0.808-1.176,0.808-1.913V28.629c0-0.737,0.269-1.375,0.808-1.913
	c0.538-0.539,1.176-0.808,1.913-0.808c0.736,0,1.374,0.27,1.913,0.808C61.01,27.254,61.279,27.892,61.279,28.629L61.279,28.629z
	 M93.93,28.629v68.021c0,1.474-0.539,2.749-1.616,3.826c-1.076,1.077-2.353,1.616-3.826,1.616h-5.441
	c-1.474,0-2.749-0.539-3.826-1.616s-1.615-2.353-1.615-3.826V74.883h-9.523c-0.368,0-0.688-0.135-0.956-0.404
	c-0.27-0.27-0.404-0.588-0.404-0.956v-34.01c0-3.742,1.332-6.944,3.996-9.608c2.664-2.665,5.867-3.997,9.608-3.997h10.883
	c0.737,0,1.375,0.269,1.913,0.808C93.66,27.254,93.93,27.892,93.93,28.629L93.93,28.629z"/>
</svg>
