<?xml version="1.0" encoding="utf-8"?>
<!-- Generator: Adobe Illustrator 15.0.0, SVG Export Plug-In  -->
<!DOCTYPE svg PUBLIC "-//W3C//DTD SVG 1.1//EN" "http://www.w3.org/Graphics/SVG/1.1/DTD/svg11.dtd" [
	<!ENTITY ns_flows "http://ns.adobe.com/Flows/1.0/">
]>
<svg version="1.1"
	 xmlns="http://www.w3.org/2000/svg" xmlns:xlink="http://www.w3.org/1999/xlink" xmlns:a="http://ns.adobe.com/AdobeSVGViewerExtensions/3.0/"
	 x="0px" y="0px" width="128px" height="128px" viewBox="0 0 128 128" enable-background="new 0 0 128 128" xml:space="preserve">
<defs>
</defs>
<circle fill="#5F5F61" cx="64" cy="64" r="63.5"/>
<rect fill="none" width="128" height="128"/>
<path fill="#FFFFFF" d="M104.99,31.737c0.061-0.758-0.201-1.507-0.718-2.066c-0.517-0.559-1.244-0.876-2.006-0.876H91.229
	c0.061-1.01,0.106-2.029,0.106-3.061c0-1.51-1.227-2.733-2.734-2.733H39.4c-1.51,0-2.733,1.224-2.733,2.733
	c0,1.033,0.041,2.051,0.104,3.061H25.733c-0.762,0-1.489,0.317-2.007,0.876c-0.516,0.559-0.778,1.309-0.719,2.066
	c0.984,12.814,8.785,36.676,30.988,37.94c3.074,4.516,5.903,9.083,5.903,12.774c0,11.305-15.495,17.116-15.653,17.153
	c-1.35,0.317-2.252,1.599-2.093,2.978c0.159,1.377,1.324,2.418,2.714,2.418h38.265c0.021-0.002,0.04,0,0.058,0
	c1.512,0,2.734-1.221,2.734-2.733c0-1.381-1.022-2.519-2.347-2.705C81.865,99.112,68.1,93.16,68.1,82.451
	c0-3.691,2.829-8.259,5.905-12.774C96.209,68.413,104.008,44.551,104.99,31.737z M28.828,34.261h8.581
	c1.942,11.599,7.46,21.542,12.52,29.341C34.408,59.844,29.973,41.547,28.828,34.261z M99.175,34.261
	c-1.149,7.286-5.585,25.583-21.104,29.341c5.06-7.799,10.576-17.742,12.516-29.341H99.175z"/>
</svg>
