<?xml version="1.0" encoding="utf-8"?>
<!-- Generator: Adobe Illustrator 15.0.0, SVG Export Plug-In  -->
<!DOCTYPE svg PUBLIC "-//W3C//DTD SVG 1.1//EN" "http://www.w3.org/Graphics/SVG/1.1/DTD/svg11.dtd" [
	<!ENTITY ns_flows "http://ns.adobe.com/Flows/1.0/">
]>
<svg version="1.1"
	 xmlns="http://www.w3.org/2000/svg" xmlns:xlink="http://www.w3.org/1999/xlink" xmlns:a="http://ns.adobe.com/AdobeSVGViewerExtensions/3.0/"
	 x="0px" y="0px" width="128px" height="128px" viewBox="0 0 128 128" enable-background="new 0 0 128 128" xml:space="preserve">
<defs>
</defs>
<circle fill="#FFFFFF" cx="64" cy="64" r="63.5"/>
<rect fill="none" width="128" height="128"/>
<path fill="#5F5F61" d="M86.519,49.449v-4.54c0-1.288-1.369-2.328-3.053-2.328c-1.686,0-3.055,1.04-3.055,2.328v3.506H58.099
	c-4.831,0-8.746,3.911-8.746,8.74v51.501c0,4.833,3.915,8.748,8.746,8.748h24.294c4.829,0,8.744-3.915,8.744-8.748V57.155
	C91.137,53.818,89.268,50.924,86.519,49.449z M59.839,112.282c-2.144,0-3.877-1.731-3.877-3.876c0-2.139,1.733-3.874,3.877-3.874
	c2.14,0,3.877,1.735,3.877,3.874C63.716,110.551,61.979,112.282,59.839,112.282z M59.839,102.852c-2.144,0-3.877-1.739-3.877-3.876
	c0-2.144,1.733-3.878,3.877-3.878c2.14,0,3.877,1.734,3.877,3.878C63.716,101.112,61.979,102.852,59.839,102.852z M59.839,93.412
	c-2.144,0-3.877-1.73-3.877-3.875c0-2.14,1.733-3.875,3.877-3.875c2.14,0,3.877,1.735,3.877,3.875
	C63.716,91.682,61.979,93.412,59.839,93.412z M70.245,112.282c-2.142,0-3.877-1.731-3.877-3.876c0-2.139,1.735-3.874,3.877-3.874
	c2.14,0,3.877,1.735,3.877,3.874C74.122,110.551,72.384,112.282,70.245,112.282z M70.245,102.852c-2.142,0-3.877-1.739-3.877-3.876
	c0-2.144,1.735-3.878,3.877-3.878c2.14,0,3.877,1.734,3.877,3.878C74.122,101.112,72.384,102.852,70.245,102.852z M70.245,93.412
	c-2.142,0-3.877-1.73-3.877-3.875c0-2.14,1.735-3.875,3.877-3.875c2.14,0,3.877,1.735,3.877,3.875
	C74.122,91.682,72.384,93.412,70.245,93.412z M80.648,112.282c-2.139,0-3.875-1.731-3.875-3.876c0-2.139,1.737-3.874,3.875-3.874
	c2.141,0,3.878,1.735,3.878,3.874C84.527,110.551,82.79,112.282,80.648,112.282z M80.648,102.852c-2.139,0-3.875-1.739-3.875-3.876
	c0-2.144,1.737-3.878,3.875-3.878c2.141,0,3.878,1.734,3.878,3.878C84.527,101.112,82.79,102.852,80.648,102.852z M80.648,93.412
	c-2.139,0-3.875-1.73-3.875-3.875c0-2.14,1.737-3.875,3.875-3.875c2.141,0,3.878,1.735,3.878,3.875
	C84.527,91.682,82.79,93.412,80.648,93.412z M85.145,70.762c0,4.829-3.918,8.744-8.748,8.744H64.088
	c-4.828,0-8.744-3.915-8.744-8.744v-8.747c0-4.83,3.917-8.744,8.744-8.744h12.309c4.829,0,8.748,3.914,8.748,8.744V70.762z"/>
<path fill="#5F5F61" d="M50.591,17.941c-8.86,0-16.919,3.681-22.878,9.645c-6.52,6.521-10.57,15.782-10.57,26.049
	c0,1.026,0.835,1.857,1.865,1.857s1.864-0.831,1.864-1.864c0.003-9.269,3.662-17.59,9.479-23.41
	c5.33-5.321,12.424-8.538,20.241-8.545c1.029,0.007,1.866-0.832,1.864-1.866C52.458,18.773,51.623,17.941,50.591,17.941z"/>
<path fill="#5F5F61" d="M55.285,27.319c-7.667,0-14.642,3.181-19.79,8.335c-5.638,5.64-9.135,13.644-9.137,22.507
	c0,1.026,0.835,1.864,1.865,1.864c1.032,0,1.864-0.831,1.864-1.864c0-7.873,3.109-14.931,8.046-19.868
	c4.517-4.511,10.527-7.244,17.151-7.244c1.03,0,1.863-0.831,1.863-1.864C57.146,28.157,56.315,27.319,55.285,27.319z"/>
<path fill="#5F5F61" d="M59.975,36.695c-6.468,0-12.359,2.69-16.698,7.035c-4.752,4.757-7.7,11.503-7.702,18.963
	c0.002,1.026,0.837,1.865,1.865,1.865c1.03,0,1.865-0.839,1.865-1.865c0-6.47,2.554-12.275,6.608-16.324
	c3.708-3.702,8.632-5.937,14.062-5.943c1.028,0,1.863-0.832,1.863-1.864c0-1.027-0.835-1.866-1.865-1.866H59.975z"/>
</svg>
